<?xml version="1.0" encoding="utf-8"?>
<svg xmlns="http://www.w3.org/2000/svg" width="130" height="37" fill="none">
  <path d="m128.964 16.509-5.366 6.533c1.073 2 2.281 3.867 3.488 5.6.805 1.067 1.073 2.534.67 3.867v.133c-.536 1.867-2.146 3.333-4.158 3.467-1.207.133-2.414.133-3.621.133-1.208 0-2.415 0-3.622-.133-1.207-.134-2.146-.667-2.951-1.467-.805.8-1.744 1.333-2.951 1.467-1.073.133-2.414.133-3.622.133-1.341 0-2.548 0-3.621-.133-.671-.134-1.207-.267-1.744-.534-1.475.4-3.085.534-4.695.534-3.487 0-5.901-.934-7.78-2.134a9.133 9.133 0 0 1-5.901 2.134c-2.817 0-4.56-1.2-5.634-2.134-2.414 1.334-5.365 2.134-8.316 2.134-2.951 0-5.634-.8-7.646-2.134-.402.267-.805.534-1.207.667-2.012.933-4.695 1.467-7.243 1.467-4.159 0-6.841-1.334-8.585-2.8-.268.267-.67.533-1.073.8-3.622 1.866-7.512 2-9.121 2-5.902 0-8.853-2.534-10.463-4.667-.134-.133-.268-.267-.268-.533-2.683 3.2-6.17 5.2-11.267 5.2-4.561 0-8.183-1.733-10.329-4.667-2.28-3.333-2.548-7.866-.805-12.666C3.548 12.509 9.316 8.509 16.291 8.509h.268v-.533c-.134-2.134 1.341-4.134 3.487-4.934l6.305-2.4a5.41 5.41 0 0 1 2.012-.4c2.012 0 3.89 1.067 4.829 2.934l2.682 5.466c.805-.133 1.61-.133 2.415-.133 3.755 0 6.975 1.333 8.987 3.733 3.085-2.4 6.975-3.733 11.267-3.733 2.28 0 4.292.4 6.036 1.2.268.133.67.4.939.667a17.721 17.721 0 0 1 7.914-1.867c4.426 0 8.182 1.733 10.328 4.8a12.277 12.277 0 0 1 2.012 5.333C88.455 12.51 94.76 8.51 102.003 8.51c1.609 0 3.353.267 4.694.667.269-.134.537-.134.939-.134 1.073-.266 2.146-.266 3.22-.266 1.073 0 2.28 0 3.353.133.939.133 1.744.4 2.414.933.671-.533 1.476-.933 2.415-.933 1.073-.133 2.28-.133 3.487-.133 1.207 0 2.281 0 3.354.266 1.743.267 3.085 1.334 3.755 2.934.671 1.466.403 3.2-.67 4.533Z" fill="#113032"/>
  <path d="M117.965 22.375c1.609 3.334 3.487 6.267 5.231 8.8v.134a49.725 49.725 0 0 1-6.304 0c-.939-1.334-1.878-3.334-2.683-5.334l-4.158 5.334c-2.012.133-4.427.133-6.305 0l7.78-9.334c-1.341-2.4-2.683-4.933-3.487-8.533a39.723 39.723 0 0 1 5.633 0c.537 1.733 1.073 3.6 1.744 5.334l4.158-5.334c1.878-.267 4.024-.267 5.768 0l-7.377 8.933Zm-87.188-11.2c.537.134.94-.133.67-.666l-2.548-5.2c-.134-.4-.67-.4-.939-.267l-6.438 2.4c-.537.133-.537.667 0 .8l2.012.533c-1.61 3.467-3.488 8.8-5.097 12.134-1.744 3.733-2.683 6.267-5.634 6.267-2.95 0-3.487-2.267-2.146-5.6 1.475-3.867 3.89-4.934 6.707-4.134.805-1.067 1.341-2.667 1.61-4.133-.805-.267-1.744-.267-2.55-.267-4.56 0-8.986 2.267-10.73 7.2-2.549 6.267-.402 11.2 6.573 11.2 5.097 0 7.913-2.267 11.267-9.333 1.878-3.867 3.353-7.734 5.231-11.467l2.012.534Zm13.414 8.667c-1.208 3.2-5.098 4.534-12.475 4.4 0 2.133 1.475 3.067 4.158 3.067 1.878 0 3.89-.4 5.231-1.2a7.108 7.108 0 0 1 .135 3.733c-2.28 1.2-4.963 1.467-6.975 1.467-7.646 0-8.72-5.733-7.11-10.134 1.476-4.266 5.5-8.133 11-8.133 5.23.133 7.377 3.467 6.036 6.8ZM37.35 16.91c-2.146 0-3.756 1.333-4.695 3.6 4.56 0 6.17-.667 6.573-1.733.268-.8 0-1.867-1.878-1.867Zm20.925.533c.939 0 1.878.134 2.414.534.94-1.334 1.61-2.667 1.61-4-.805-.4-2.28-.667-4.024-.667-5.902 0-10.597 3.467-12.34 8.267-1.61 4.533-.403 10.133 7.108 10.133 2.013 0 4.025-.4 5.366-1.067.402-1.333.536-2.666.134-4-.939.4-2.28.8-3.756.8-3.756 0-4.158-2.8-3.353-5.2.939-2.8 3.22-4.8 6.84-4.8ZM84.43 25.31c-2.28 0-3.488 1.466-4.024 2.8-.537 1.6.134 3.466 2.683 3.466 2.146 0 3.487-1.333 4.024-2.666.536-1.733 0-3.6-2.683-3.6Zm-3.89-1.6c-1.878 4.933-6.304 7.733-11.401 7.733-6.841 0-8.853-5.333-7.11-10.4 1.61-4.533 5.768-7.867 11.268-7.867 6.975 0 9.12 5.2 7.243 10.534Zm-7.914-6.4c-2.548 0-4.292 2.267-4.963 4.533-.939 2.8-.402 5.6 2.415 5.6 2.414 0 4.158-2.133 4.963-4.4.804-2.8.536-5.733-2.415-5.733Zm25.888 9.866c-3.756 0-4.158-2.8-3.353-5.2.939-2.533 3.219-4.533 6.841-4.533.939 0 1.877.134 2.414.534.939-1.334 1.61-2.667 1.61-4-.805-.4-2.281-.667-4.024-.667-5.902 0-10.597 3.467-12.34 8.267-1.61 4.533-.403 10.133 7.108 10.133 2.012 0 4.024-.4 5.366-1.067.402-1.333.536-2.666.134-4-.939.134-2.28.534-3.756.534Z" fill="#02F67C"/>
</svg>