<?xml version="1.0" encoding="utf-8"?>
<svg xmlns="http://www.w3.org/2000/svg" width="130" height="37" fill="none">
  <path d="M117.965 22.375c1.609 3.334 3.487 6.267 5.231 8.8v.134a49.725 49.725 0 0 1-6.304 0c-.939-1.334-1.878-3.334-2.683-5.334l-4.158 5.334c-2.012.133-4.427.133-6.305 0l7.78-9.334c-1.341-2.4-2.683-4.933-3.487-8.533a39.723 39.723 0 0 1 5.633 0c.537 1.733 1.073 3.6 1.744 5.334l4.158-5.334c1.878-.267 4.024-.267 5.768 0l-7.377 8.933Zm-87.188-11.2c.537.134.94-.133.67-.666l-2.548-5.2c-.134-.4-.67-.4-.939-.267l-6.438 2.4c-.537.133-.537.667 0 .8l2.012.533c-1.61 3.467-3.488 8.8-5.097 12.134-1.744 3.733-2.683 6.267-5.634 6.267-2.95 0-3.487-2.267-2.146-5.6 1.475-3.867 3.89-4.934 6.707-4.134.805-1.067 1.341-2.667 1.61-4.133-.805-.267-1.744-.267-2.55-.267-4.56 0-8.986 2.267-10.73 7.2-2.549 6.267-.402 11.2 6.573 11.2 5.097 0 7.913-2.267 11.267-9.333 1.878-3.867 3.353-7.734 5.231-11.467l2.012.534Zm13.414 8.667c-1.208 3.2-5.098 4.534-12.475 4.4 0 2.133 1.475 3.067 4.158 3.067 1.878 0 3.89-.4 5.231-1.2a7.108 7.108 0 0 1 .135 3.733c-2.28 1.2-4.963 1.467-6.975 1.467-7.646 0-8.72-5.733-7.11-10.134 1.476-4.266 5.5-8.133 11-8.133 5.23.133 7.377 3.467 6.036 6.8ZM37.35 16.91c-2.146 0-3.756 1.333-4.695 3.6 4.56 0 6.17-.667 6.573-1.733.268-.8 0-1.867-1.878-1.867Zm20.925.533c.939 0 1.878.134 2.414.534.94-1.334 1.61-2.667 1.61-4-.805-.4-2.28-.667-4.024-.667-5.902 0-10.597 3.467-12.34 8.267-1.61 4.533-.403 10.133 7.108 10.133 2.013 0 4.025-.4 5.366-1.067.402-1.333.536-2.666.134-4-.939.4-2.28.8-3.756.8-3.756 0-4.158-2.8-3.353-5.2.939-2.8 3.22-4.8 6.84-4.8ZM84.43 25.31c-2.28 0-3.488 1.466-4.024 2.8-.537 1.6.134 3.466 2.683 3.466 2.146 0 3.487-1.333 4.024-2.666.536-1.733 0-3.6-2.683-3.6Zm-3.89-1.6c-1.878 4.933-6.304 7.733-11.401 7.733-6.841 0-8.853-5.333-7.11-10.4 1.61-4.533 5.768-7.867 11.268-7.867 6.975 0 9.12 5.2 7.243 10.534Zm-7.914-6.4c-2.548 0-4.292 2.267-4.963 4.533-.939 2.8-.402 5.6 2.415 5.6 2.414 0 4.158-2.133 4.963-4.4.804-2.8.536-5.733-2.415-5.733Zm25.888 9.866c-3.756 0-4.158-2.8-3.353-5.2.939-2.533 3.219-4.533 6.841-4.533.939 0 1.877.134 2.414.534.939-1.334 1.61-2.667 1.61-4-.805-.4-2.281-.667-4.024-.667-5.902 0-10.597 3.467-12.34 8.267-1.61 4.533-.403 10.133 7.108 10.133 2.012 0 4.024-.4 5.366-1.067.402-1.333.536-2.666.134-4-.939.134-2.28.534-3.756.534Z" fill="#02F67C"/>
</svg>
